<?xml version="1.0" encoding="UTF-8" standalone="no"?>
<svg xmlns:rdf="http://www.w3.org/1999/02/22-rdf-syntax-ns#" xmlns="http://www.w3.org/2000/svg" xml:space="preserve" height="100.61" viewBox="0 0 116.59857 100.61019" width="116.6" version="1.1" xmlns:cc="http://creativecommons.org/ns#" xmlns:dc="http://purl.org/dc/elements/1.1/"><g transform="matrix(1.25 0 0 -1.25 -566.16 137.5)"><g><path d="m87.65 1.0898c-27.671 0.3254-61.934 21.222-76.05 32.898l-9.4926 14.698 11.809-2.918c-18.134 22.761-11.654 37.666-10.893 39.211 1.9079 5.366 6.2636 9.66 13.329 12.476 5.363 2.145 11.448 2.409 16.662 2.166 22.543-1.056 49.173-15.105 66.381-30.053l0.4-0.345 3.425-17.27-6.685 3.717c-23.211 10.181-41.883 15.838-41.883 15.838-12.223 3.806-17.839 4.424-21.841 3.498l-0.483-0.149c-1.102-0.428-1.301-1.427-1.301-1.695-0.176-7.644 12.974-24.083 19.596-31.193 6.175-6.631 15.881-13.914 24.09-17.365 5.5-2.314 9.052-3.239 10.713-3.069-0.449 1.423-1.191 3.178-2.28 5.315 0 0-8.8 17.365-9.181 18.06-0.219 0.394 41.915-24.185 41.915-24.185v-8.413l-2.06-2.091c-7.01-6.6755-16.161-9.2488-26.17-9.1312z" transform="matrix(.8 0 0 -.8 452.92 110)" fill="#ffb81c"/><path d="m113.06 13.68l-27.632 16.906c-0.219 0.497-3.813 7.441-4.153 7.787l31.855-19.269-0.07-5.424zm-30.451 0.679c-2.811 0.075-6.794 1.426-11.287 3.323-8.677 3.655-18.745 11.214-25.164 18.103-6.227 6.699-20.629 24.174-20.412 33.356 0.068 2.41 0.911 4.082 2.299 5.232-0.055-0.366-0.08-0.749-0.094-1.137-0.225-9.181 14.186-26.66 20.42-33.365 6.411-6.889 16.471-14.452 25.156-18.1 5.724-2.417 10.626-3.939 13.336-3.07 0.197-3.212-1.442-4.416-4.254-4.342zm-58.021 21.047c-3.458 0.803-7.277 1.661-10.998 2.533-0.716 0.932-3.8406 5.226-4.2619 5.791 3.0359-0.748 6.4479-1.592 9.8169-2.402 1.905-2.255 3.769-4.254 5.443-5.922zm74.418 24.252c-16.608 15.96-45.015 31.712-68.332 32.793-5.066 0.245-10.626-0.059-15.385-1.945-4.355-1.75-7.4046-4.009-9.3984-6.651 1.53 4.398 5.1254 8.15 11.613 10.735 4.744 1.905 10.303 2.199 15.367 1.967 21.611-1.019 47.601-14.62 64.516-29.309l1.619-7.59z" fill-rule="evenodd" transform="matrix(.8 0 0 -.8 452.92 110)" fill="#041342"/><path d="m88.961 4.166c-26.315-0.3643-60.424 19.812-75.207 32.043 5.532-1.545 11.188-2.762 16.791-4.043-61.56 58.865 1 82.274 67.285 26.285-23.417 10.295-42.279 16.004-42.279 16.004-48.525 15.104-33.005-16.43-10.842-40.029 2.722-2.903 11.408-10.96 18.984-14.94 13.32-7.841 33.264-12.931 22.19 8.76l25.787-15.812c-6.03-5.7413-13.938-8.1466-22.709-8.268z" fill-rule="evenodd" transform="matrix(.8 0 0 -.8 452.92 110)" fill="#6f263d"/></g></g></svg>
