<svg xmlns="http://www.w3.org/2000/svg" viewBox="0.0 0.0 379.89548 257.97552" width="383.5706411883073" height="260.70817018267763"><defs><style>.cls-1{fill:#4e008e;}</style></defs><title>Utah Jazz logo 2025</title><path class="cls-1" d="M379.89548.1262,342.7894,79.76541H193.9865L147.16219,180.22948H105.13387a67.58589,67.58589,0,0,1,2.90287-14.89292,60.94445,60.94445,0,0,1,21.07724-29.281,69.492,69.492,0,0,1,6.8154,9.21342c.37863.50484,1.00969.50484,1.1359,0h0L204.84064,0H379.89548Z"/><path class="cls-1" d="M35.46533,211.40363A61.45309,61.45309,0,0,1,17.79577,232.6071,74.29533,74.29533,0,0,1,0,188.4332H41.77587a59.53041,59.53041,0,0,1-6.31054,22.97043"/><path class="cls-1" d="M69.41612,188.4332v69.54232A73.80683,73.80683,0,0,1,23.7277,238.539a68.3645,68.3645,0,0,0,19.18409-23.47528,66.55371,66.55371,0,0,0,7.194-26.63055Z"/><path class="cls-1" d="M38.74681,165.33656a56.56229,56.56229,0,0,1,2.90286,14.89292H0a74.24159,74.24159,0,0,1,17.79577-44.04769,59.00683,59.00683,0,0,1,20.951,29.15476"/><path class="cls-1" d="M69.41612,110.81336v69.4161H49.97961a70.74562,70.74562,0,0,0-3.4077-17.54333,68.44114,68.44114,0,0,0-22.97043-32.56249,73.01994,73.01994,0,0,1,26.75675-15.77639,76.83831,76.83831,0,0,1,19.05789-3.53391"/><path class="cls-1" d="M96.93015,180.22948H77.61984V110.81336a73.30529,73.30529,0,0,1,45.81464,19.3103,67.12093,67.12093,0,0,0-23.09664,32.56248,71.87416,71.87416,0,0,0-3.40769,17.54334"/><path class="cls-1" d="M123.43448,238.66524a73.88428,73.88428,0,0,1-45.94085,19.31028V188.4332H96.80394a70.95464,70.95464,0,0,0,7.194,26.63055,69.49736,69.49736,0,0,0,19.4365,23.60149"/><path class="cls-1" d="M147.16219,188.4332a73.63975,73.63975,0,0,1-17.922,44.17389A60.862,60.862,0,0,1,105.13387,188.307h42.02832Z"/></svg>